Coordinates
version=1
nRows=20
nColumns=38
inDegrees=no

Units are S.I. units (second, meters, Newtons, ...)
If the header above contains a line with 'inDegrees', this indicates whether rotational values are in degrees (yes) or radians (no).

endheader
time	pelvis_tilt	pelvis_list	pelvis_rotation	pelvis_tx	pelvis_ty	pelvis_tz	hip_flexion_r	hip_adduction_r	hip_rotation_r	knee_angle_r	ankle_angle_r	subtalar_angle_r	mtp_angle_r	hip_flexion_l	hip_adduction_l	hip_rotation_l	knee_angle_l	ankle_angle_l	subtalar_angle_l	mtp_angle_l	lumbar_extension	lumbar_bending	lumbar_rotation	arm_flex_r	arm_add_r	arm_rot_r	elbow_flex_r	pro_sup_r	wrist_flex_r	wrist_dev_r	arm_flex_l	arm_add_l	arm_rot_l	elbow_flex_l	pro_sup_l	wrist_flex_l	wrist_dev_l
63.17	3.04589	1.50004	-1.35773	0.62536	-0.111751	0.932789	0.192764	-0.0451705	-0.136014	0.566384	-0.322366	0	0	0.0968419	-0.0282815	-0.0106712	0.395667	-0.299147	0	0	-0.327987	0.0885004	-0.270719	0.473649	-0.146355	0.446369	0.0742502	1.5708	0	0	0.192086	-0.475092	0.924716	0.563235	0.434879	0	0
63.18	3.02194	1.50333	-1.33461	0.625854	-0.113502	0.931597	0.205237	-0.0442768	-0.133603	0.578933	-0.319257	0	0	0.111324	-0.030854	-0.0153608	0.4125	-0.294547	0	0	-0.332445	0.0900946	-0.269349	0.47803	-0.145564	0.446857	0.0748719	1.5708	0	0	0.194122	-0.476449	0.91829	0.565849	0.440982	0	0
63.19	2.6625	1.49743	-0.986804	0.62649	-0.112793	0.926747	0.218732	-0.015571	-0.128907	0.596241	-0.304989	0	0	0.238042	-0.182195	-0.36972	0.719407	-0.301918	0	0	-0.320565	0.117588	-0.26908	0.495889	-0.135173	0.45857	0.0460289	1.5708	0	0	0.169146	-0.47563	0.885672	0.577063	0.450821	0	0
63.2	2.63187	1.50024	-0.955196	0.626808	-0.114334	0.925363	0.230352	-0.0160618	-0.129017	0.60761	-0.302588	0	0	0.250591	-0.183874	-0.366884	0.730729	-0.301538	0	0	-0.324691	0.11877	-0.269278	0.499225	-0.134579	0.46015	0.0470281	1.5708	0	0	0.170905	-0.476762	0.880609	0.578948	0.456852	0	0
63.21	2.59479	1.50382	-0.91753	0.62721	-0.115879	0.923846	0.243289	-0.0166761	-0.12805	0.619752	-0.299568	0	0	0.263953	-0.185201	-0.363939	0.74219	-0.300165	0	0	-0.328209	0.119321	-0.268971	0.501963	-0.13435	0.461156	0.0489689	1.5708	0	0	0.172477	-0.477973	0.874879	0.580952	0.46366	0	0
63.22	2.57119	1.50596	-0.893828	0.627651	-0.117524	0.922481	0.253933	-0.0170367	-0.126368	0.630556	-0.29745	0	0	0.274655	-0.186304	-0.361047	0.752061	-0.299119	0	0	-0.333953	0.119533	-0.267852	0.504974	-0.134124	0.461452	0.0509574	1.5708	0	0	0.175346	-0.479248	0.870957	0.58267	0.468243	0	0
63.23	2.53086	1.50917	-0.854264	0.628165	-0.119149	0.92093	0.267537	-0.0177152	-0.125145	0.64457	-0.294547	0	0	0.287061	-0.18839	-0.360317	0.763492	-0.297616	0	0	-0.338597	0.119415	-0.266289	0.507762	-0.133876	0.461131	0.0534055	1.5708	0	0	0.176873	-0.480767	0.864258	0.58556	0.474247	0	0
63.24	2.48783	1.51189	-0.81251	0.628751	-0.120768	0.919428	0.280739	-0.0184637	-0.125232	0.658335	-0.291717	0	0	0.298706	-0.191	-0.360142	0.774342	-0.296243	0	0	-0.343744	0.119392	-0.264346	0.510581	-0.133618	0.461044	0.0560916	1.5708	0	0	0.178109	-0.482033	0.856583	0.588155	0.480629	0	0
63.25	2.4542	1.51336	-0.779981	0.629344	-0.122377	0.918071	0.291746	-0.0191272	-0.126181	0.67012	-0.289587	0	0	0.308827	-0.193818	-0.359362	0.784621	-0.295363	0	0	-0.350295	0.11972	-0.26232	0.513553	-0.1334	0.460971	0.0587233	1.5708	0	0	0.1799	-0.483122	0.849876	0.590247	0.486079	0	0
63.26	2.41518	1.51465	-0.741922	0.629939	-0.123983	0.916665	0.302775	-0.0196779	-0.127758	0.681804	-0.287501	0	0	0.319602	-0.197226	-0.358754	0.795925	-0.294646	0	0	-0.356918	0.120306	-0.260321	0.516436	-0.133235	0.460816	0.0615221	1.5708	0	0	0.181533	-0.484192	0.842568	0.59274	0.491966	0	0
63.27	2.35912	1.51627	-0.686769	0.630544	-0.125564	0.915095	0.314969	-0.0201608	-0.130067	0.69419	-0.285005	0	0	0.332087	-0.201393	-0.358703	0.808705	-0.294081	0	0	-0.362642	0.121102	-0.258462	0.519017	-0.133203	0.460474	0.064755	1.5708	0	0	0.182276	-0.484972	0.832833	0.595525	0.499736	0	0
63.28	2.28621	1.5181	-0.614912	0.631165	-0.127105	0.913398	0.328147	-0.0202797	-0.131744	0.706944	-0.281913	0	0	0.345483	-0.205394	-0.357964	0.821256	-0.293646	0	0	-0.367653	0.12196	-0.256637	0.521261	-0.133432	0.460094	0.0686907	1.5708	0	0	0.181888	-0.484946	0.819274	0.597793	0.510775	0	0
63.29	2.2391	1.51905	-0.569012	0.631737	-0.128692	0.911762	0.339254	-0.0204073	-0.131304	0.717981	-0.280035	0	0	0.356441	-0.20809	-0.355923	0.831983	-0.293091	0	0	-0.374194	0.122544	-0.254553	0.524093	-0.133547	0.459947	0.071674	1.5708	0	0	0.182872	-0.485154	0.809501	0.599578	0.518507	0	0
63.3	2.16716	1.52117	-0.498283	0.632255	-0.130256	0.909867	0.353237	-0.0210967	-0.130689	0.731869	-0.277136	0	0	0.369641	-0.210327	-0.35474	0.844204	-0.291843	0	0	-0.379227	0.12257	-0.25301	0.526603	-0.13375	0.459508	0.0752157	1.5708	0	0	0.182074	-0.485357	0.79539	0.60278	0.529337	0	0
63.31	2.11486	1.52306	-0.446485	0.632659	-0.131891	0.908039	0.365921	-0.0226306	-0.130938	0.74533	-0.274074	0	0	0.381349	-0.210829	-0.352319	0.854913	-0.290366	0	0	-0.385337	0.122306	-0.252264	0.529427	-0.133773	0.45947	0.0784594	1.5708	0	0	0.181585	-0.485568	0.78209	0.60553	0.541109	0	0
63.32	2.06588	1.52539	-0.398098	0.633122	-0.133468	0.906097	0.378385	-0.0241231	-0.129673	0.758363	-0.270498	0	0	0.392391	-0.21086	-0.351071	0.865266	-0.288361	0	0	-0.391262	0.121129	-0.251572	0.531896	-0.133695	0.459557	0.0817067	1.57025	0	0	0.180903	-0.486088	0.768737	0.608402	0.552579	0	0
63.33	2.02151	1.52738	-0.354442	0.633651	-0.135006	0.904136	0.390344	-0.025467	-0.128279	0.771246	-0.267347	0	0	0.402496	-0.211199	-0.350361	0.875391	-0.286047	0	0	-0.397543	0.119822	-0.250841	0.534228	-0.133411	0.460298	0.0848599	1.56865	0	0	0.180524	-0.486987	0.756999	0.611154	0.562086	0	0
63.34	1.97168	1.52914	-0.305181	0.634221	-0.136503	0.902142	0.402093	-0.0265431	-0.126702	0.783945	-0.264058	0	0	0.412639	-0.211937	-0.349903	0.885827	-0.283349	0	0	-0.403883	0.118636	-0.25013	0.536183	-0.133256	0.461131	0.088569	1.56563	0	0	0.179947	-0.488041	0.745064	0.614378	0.571429	0	0
63.35	1.92574	1.53004	-0.259739	0.634801	-0.137998	0.900199	0.41291	-0.0267845	-0.125205	0.796161	-0.261003	0	0	0.422662	-0.213337	-0.3487	0.896343	-0.281031	0	0	-0.410675	0.118208	-0.248975	0.538074	-0.133381	0.462111	0.0923256	1.56206	0	0	0.180382	-0.488788	0.735402	0.617259	0.57936	0	0
63.36	1.86378	1.53033	-0.198204	0.635351	-0.1395	0.898221	0.424095	-0.0262285	-0.123435	0.807917	-0.257453	0	0	0.433719	-0.215392	-0.346609	0.907439	-0.278641	0	0	-0.417216	0.118506	-0.247718	0.539685	-0.13403	0.463899	0.096982	1.55715	0	0	0.180618	-0.488829	0.724709	0.619849	0.589206	0	0
